#define Front_width 64
#define Front_height 70
static unsigned char Front_bits[] = {
   0x00, 0x00, 0x00, 0x00, 0x00, 0x00, 0x00, 0x00, 0x00, 0x00, 0x00, 0x00,
   0x00, 0x00, 0x00, 0x00, 0x00, 0xf0, 0x03, 0x00, 0x00, 0xc0, 0x0f, 0x00,
   0x00, 0xf0, 0x03, 0x00, 0x00, 0xc0, 0x0f, 0x00, 0x00, 0x0c, 0xcc, 0xff,
   0xff, 0x33, 0x30, 0x00, 0x00, 0x0c, 0xcc, 0xff, 0xff, 0x33, 0x30, 0x00,
   0x00, 0x03, 0xf0, 0x00, 0x00, 0x0f, 0xc0, 0x00, 0x00, 0x03, 0xf0, 0x00,
   0x00, 0x0f, 0xc0, 0x00, 0xc0, 0x00, 0x08, 0x00, 0x00, 0x00, 0x00, 0x03,
   0xc0, 0x81, 0x02, 0x00, 0x00, 0x50, 0x41, 0x03, 0xc0, 0xa0, 0x00, 0x00,
   0x00, 0x80, 0x04, 0x03, 0xc0, 0x01, 0x01, 0x00, 0x00, 0x00, 0x41, 0x03,
   0xc0, 0x50, 0x00, 0x00, 0x00, 0x00, 0x0a, 0x03, 0xc0, 0x21, 0x00, 0x00,
   0x00, 0x00, 0x40, 0x03, 0xc0, 0x00, 0x00, 0x00, 0x00, 0x00, 0x04, 0x03,
   0xc0, 0x15, 0x00, 0x00, 0x00, 0x00, 0x54, 0x03, 0x00, 0x0b, 0x00, 0x00,
   0x00, 0x00, 0xd0, 0x00, 0x00, 0x13, 0x00, 0x00, 0x00, 0x00, 0xe4, 0x00,
   0x00, 0x2c, 0x00, 0x00, 0x00, 0x00, 0x30, 0x00, 0x00, 0x0c, 0x00, 0x00,
   0x00, 0x00, 0x38, 0x00, 0x00, 0x1c, 0x00, 0x00, 0x00, 0x00, 0x30, 0x00,
   0x00, 0x0c, 0x00, 0x00, 0x00, 0x00, 0x38, 0x00, 0x00, 0x2b, 0x00, 0x00,
   0x00, 0x00, 0xc8, 0x00, 0x00, 0x07, 0x00, 0x00, 0x00, 0x00, 0xe8, 0x00,
   0x00, 0x2b, 0x00, 0x00, 0x00, 0x00, 0xd0, 0x00, 0x00, 0x03, 0x00, 0x00,
   0x00, 0x00, 0xe4, 0x00, 0x00, 0x17, 0x00, 0x00, 0x00, 0x00, 0xd0, 0x00,
   0x00, 0x13, 0x00, 0x00, 0x00, 0x00, 0xe4, 0x00, 0x00, 0x07, 0x30, 0x00,
   0x00, 0x0c, 0xd0, 0x00, 0x00, 0x17, 0x30, 0x00, 0x00, 0x0c, 0xe4, 0x00,
   0x00, 0x2c, 0x30, 0x00, 0x00, 0x0c, 0x38, 0x00, 0x00, 0x4c, 0x30, 0x00,
   0x00, 0x0c, 0x32, 0x00, 0x00, 0x9c, 0xf0, 0x03, 0xc0, 0x0f, 0x34, 0x00,
   0x00, 0x1c, 0xb0, 0x03, 0xc0, 0x0f, 0x39, 0x00, 0x00, 0x7c, 0x48, 0x00,
   0x00, 0x00, 0x3e, 0x00, 0x00, 0x3c, 0x48, 0x00, 0x00, 0x15, 0x3c, 0x00,
   0x00, 0x70, 0x24, 0x0c, 0x30, 0x80, 0x0e, 0x00, 0x00, 0xb0, 0x48, 0x0c,
   0x30, 0x2a, 0x0c, 0x00, 0x00, 0xc0, 0xff, 0xf0, 0x0f, 0xff, 0x03, 0x00,
   0x00, 0xc0, 0xd5, 0xf0, 0x0e, 0xfd, 0x03, 0x00, 0x00, 0x00, 0xff, 0x03,
   0xc1, 0xc7, 0x00, 0x00, 0x00, 0x00, 0xf7, 0x57, 0xd4, 0xcf, 0x00, 0x00,
   0x00, 0xc0, 0x00, 0xfe, 0x7f, 0x00, 0x03, 0x00, 0x00, 0xc0, 0x00, 0xfc,
   0x7f, 0x00, 0x03, 0x00, 0x00, 0x30, 0x00, 0x00, 0x00, 0x00, 0x0c, 0x00,
   0x00, 0x30, 0x00, 0x00, 0x00, 0x00, 0x0c, 0x00, 0x00, 0x0c, 0x30, 0x00,
   0x00, 0x00, 0x30, 0x00, 0x00, 0x0c, 0x34, 0x00, 0x00, 0x10, 0x30, 0x00,
   0x00, 0x0c, 0x3c, 0x00, 0x00, 0x3c, 0x30, 0x00, 0x00, 0x4c, 0x7d, 0x00,
   0x00, 0x7c, 0x31, 0x00, 0x00, 0xcc, 0x33, 0x01, 0x00, 0xcd, 0x33, 0x00,
   0x00, 0xcc, 0x73, 0x00, 0x40, 0xcc, 0x33, 0x00, 0x00, 0x30, 0x30, 0x01,
   0x80, 0x0e, 0x0c, 0x00, 0x00, 0x30, 0x30, 0x6d, 0x55, 0x0c, 0x0c, 0x00,
   0x00, 0x00, 0x30, 0x90, 0x24, 0x0c, 0x00, 0x00, 0x00, 0x00, 0x30, 0x10,
   0x09, 0x0c, 0x00, 0x00, 0x00, 0x00, 0x30, 0xe0, 0x07, 0x0c, 0x00, 0x00,
   0x00, 0x00, 0x30, 0xe0, 0x03, 0x0c, 0x00, 0x00, 0x00, 0x00, 0x30, 0x30,
   0x0c, 0x0c, 0x00, 0x00, 0x00, 0x00, 0x30, 0x38, 0x1c, 0x0c, 0x00, 0x00,
   0x00, 0x00, 0x30, 0x0e, 0x30, 0x0c, 0x00, 0x00, 0x00, 0x00, 0xb0, 0x0c,
   0x70, 0x0d, 0x00, 0x00, 0x00, 0x00, 0xc0, 0x0f, 0xf0, 0x03, 0x00, 0x00,
   0x00, 0x00, 0xc0, 0x0f, 0xf0, 0x03, 0x00, 0x00, 0x00, 0x00, 0x00, 0x00,
   0x00, 0x00, 0x00, 0x00, 0x00, 0x00, 0x00, 0x00, 0x00, 0x00, 0x00, 0x00,
   0x00, 0x00, 0x00, 0x00, 0x00, 0x00, 0x00, 0x00, 0x00, 0x00, 0x00, 0x00,
   0x00, 0x00, 0x00, 0x00, 0x00, 0x00, 0x00, 0x00, 0x00, 0x00, 0x00, 0x00,
   0x00, 0x00, 0x00, 0x00, 0x00, 0x00, 0x00, 0x00 };
